<svg width="20" height="20" viewBox="0 0 20 20" fill="none" xmlns="http://www.w3.org/2000/svg">
<g clip-path="url(#clip0_1_180)">
<path d="M7.98828 17.9533V19.9789L7.49847 19.5833C7.42279 19.5221 5.6221 18.0602 3.79608 15.9637C1.27716 13.0717 0 10.4758 0 8.24814V8.02734C0 3.62259 3.58353 0.0390625 7.98828 0.0390625C12.393 0.0390625 15.9766 3.62259 15.9766 8.02734V8.24814C15.9766 8.43521 15.9666 8.62518 15.9486 8.81744L14.3864 7.39227C14.0665 4.14398 11.3193 1.59775 7.98828 1.59775C4.44305 1.59775 1.55869 4.48212 1.55869 8.02734V8.24814C1.55869 12.0125 6.40884 16.5695 7.98828 17.9533ZM12.7812 16.8338H15.1192V14.4958H12.7812V16.8338ZM7.98828 4.71512C9.81461 4.71512 11.3005 6.20102 11.3005 8.02734C11.3005 9.85367 9.81461 11.3396 7.98828 11.3396C6.16196 11.3396 4.67606 9.85367 4.67606 8.02734C4.67606 6.20102 6.16196 4.71512 7.98828 4.71512ZM7.98828 6.2738C7.02133 6.2738 6.23474 7.06039 6.23474 8.02734C6.23474 8.99414 7.02133 9.78088 7.98828 9.78088C8.95508 9.78088 9.74182 8.99414 9.74182 8.02734C9.74182 7.06039 8.95508 6.2738 7.98828 6.2738ZM18.9496 15.7747L18.5114 15.3749V17.8772C18.5114 19.0424 17.5633 19.9902 16.3982 19.9902H11.4633C10.2982 19.9902 9.35013 19.0424 9.35013 17.8772V15.3749L8.9119 15.7747L7.86148 14.6233L13.9307 9.0863L20 14.6233L18.9496 15.7747ZM16.9527 13.9529L13.9307 11.1961L10.9088 13.9529V17.877C10.9088 18.1828 11.1575 18.4315 11.4633 18.4315H16.3982C16.7039 18.4315 16.9527 18.1828 16.9527 17.877V13.9529Z" fill="#FBBA42"/>
</g>
<defs>
<clipPath id="clip0_1_180">
<rect width="20" height="20" fill="white"/>
</clipPath>
</defs>
</svg>
