<svg width="32" height="32" viewBox="0 0 32 32" fill="none" xmlns="http://www.w3.org/2000/svg">
<g clip-path="url(#clip0_7_91)">
<path d="M28.4218 0H9.72775C8.65795 0 7.78756 0.870393 7.78756 1.94019V6.28201C4.2413 7.29688 1.63812 10.568 1.63812 14.4359C1.63812 18.3037 4.24123 21.5749 7.78756 22.5897V30.0599C7.78756 31.1297 8.65795 32.0001 9.72775 32.0001H25.0044C25.1857 32.0001 25.3594 31.9282 25.4876 31.8L30.1618 27.1258C30.29 26.9976 30.3619 26.8238 30.3619 26.6425V1.94019C30.3619 0.870393 29.4916 0 28.4218 0ZM9.72775 1.3667H28.4218C28.738 1.3667 28.9952 1.62397 28.9952 1.94019V4.00255H9.15426V1.94019C9.15426 1.62397 9.41153 1.3667 9.72775 1.3667ZM3.00482 14.4358C3.00482 10.5138 6.19555 7.32311 10.1175 7.32311C14.0395 7.32311 17.2302 10.5138 17.2302 14.4358C17.2302 18.3578 14.0395 21.5486 10.1175 21.5486C6.19555 21.5486 3.00482 18.3578 3.00482 14.4358ZM9.15426 30.0599V22.8602C9.47055 22.8961 9.79186 22.9153 10.1176 22.9153C12.6645 22.9153 14.9526 21.7863 16.5082 20.0028H20.6953C21.0727 20.0028 21.3786 19.6968 21.3786 19.3194C21.3786 18.942 21.0727 18.6361 20.6953 18.6361H17.4815C18.0759 17.598 18.4567 16.423 18.5647 15.171H20.6952C21.0726 15.171 21.3786 14.8651 21.3786 14.4877C21.3786 14.1103 21.0726 13.8043 20.6952 13.8043H18.5734C18.481 12.5552 18.1165 11.3806 17.5395 10.3394H20.6951C21.0725 10.3394 21.3785 10.0334 21.3785 9.656C21.3785 9.2786 21.0725 8.97265 20.6951 8.97265H16.5967C15.0401 7.12936 12.7133 5.95634 10.1174 5.95634C9.79166 5.95634 9.47036 5.97548 9.15407 6.0114V5.36925H28.995V25.959H26.2611C25.1912 25.959 24.3209 26.8294 24.3209 27.8992V30.6333H9.72775C9.41153 30.6333 9.15426 30.3761 9.15426 30.0599ZM25.6878 29.6668V27.8992C25.6878 27.583 25.9451 27.3258 26.2613 27.3258H28.0289L25.6878 29.6668Z" fill="white"/>
<path d="M23.3801 10.3394H25.6495C26.0269 10.3394 26.3328 10.0334 26.3328 9.65601C26.3328 9.2786 26.0269 8.97266 25.6495 8.97266H23.3801C23.0027 8.97266 22.6968 9.2786 22.6968 9.65601C22.6968 10.0334 23.0027 10.3394 23.3801 10.3394Z" fill="white"/>
<path d="M23.3801 15.171H25.6495C26.0269 15.171 26.3328 14.8651 26.3328 14.4877C26.3328 14.1103 26.0269 13.8043 25.6495 13.8043H23.3801C23.0027 13.8043 22.6968 14.1103 22.6968 14.4877C22.6968 14.8651 23.0027 15.171 23.3801 15.171Z" fill="white"/>
<path d="M23.3801 20.0027H25.6495C26.0269 20.0027 26.3328 19.6968 26.3328 19.3194C26.3328 18.942 26.0269 18.636 25.6495 18.636H23.3801C23.0027 18.636 22.6968 18.942 22.6968 19.3194C22.6968 19.6968 23.0027 20.0027 23.3801 20.0027Z" fill="white"/>
<path d="M25.6495 24.8344C26.0269 24.8344 26.3329 24.5285 26.3329 24.1511C26.3329 23.7737 26.0269 23.4677 25.6495 23.4677H19.2569C18.8795 23.4677 18.5736 23.7737 18.5736 24.1511C18.5736 24.5285 18.8795 24.8344 19.2569 24.8344H25.6495Z" fill="white"/>
<path d="M15.423 10.9886L14.5893 10.1549C14.3648 9.93042 14.0663 9.80676 13.7488 9.80676C13.4313 9.80676 13.1328 9.93042 12.9083 10.1549L8.53548 14.5277L7.32674 13.3189C7.10227 13.0945 6.80374 12.9709 6.48628 12.9709C6.16881 12.9709 5.87029 13.0945 5.64582 13.319L4.81194 14.1528C4.34856 14.6162 4.34856 15.3703 4.81201 15.8338L7.6949 18.7166C7.91943 18.9412 8.21795 19.0649 8.53548 19.0649H8.53555C8.85301 19.0649 9.15154 18.9412 9.37594 18.7167L15.4231 12.6696C15.8864 12.2062 15.8864 11.452 15.423 10.9886ZM8.53542 17.6244L5.90426 14.9933L6.48621 14.4113L8.05219 15.9773C8.31909 16.2442 8.75175 16.2442 9.01865 15.9773L13.7488 11.2471L14.3308 11.8291L8.53542 17.6244Z" fill="white"/>
</g>
<defs>
<clipPath id="clip0_7_91">
<rect width="32" height="32" fill="white"/>
</clipPath>
</defs>
</svg>
