<svg width="32" height="32" viewBox="0 0 32 32" fill="none" xmlns="http://www.w3.org/2000/svg">
<g clip-path="url(#clip0_7_65)">
<path d="M28.6328 8.41992C27.9701 8.74056 27.6927 9.53809 28.0133 10.2005C28.8893 12.0101 29.3333 13.9606 29.3333 16C29.3333 23.3519 23.3519 29.3333 16 29.3333C8.64811 29.3333 2.66667 23.3519 2.66667 16C2.66667 8.64811 8.64811 2.66667 16 2.66667C19.0466 2.66667 21.9085 3.66146 24.2773 5.54329C24.8519 6.00195 25.6921 5.90592 26.1507 5.32943C26.6094 4.75326 26.5133 3.91406 25.9365 3.45605C23.1322 1.22721 19.6032 0 16 0C7.17806 0 0 7.17806 0 16C0 24.8219 7.17806 32 16 32C24.8219 32 32 24.8219 32 16C32 13.5553 31.4661 11.2126 30.4134 9.03939C30.0934 8.37533 29.2933 8.09863 28.6328 8.41992Z" fill="white"/>
<path d="M16 5.33331C15.264 5.33331 14.6667 5.93064 14.6667 6.66665V16C14.6667 16.736 15.264 17.3333 16 17.3333H22.6667C23.4027 17.3333 24 16.736 24 16C24 15.264 23.4027 14.6666 22.6667 14.6666H17.3333V6.66665C17.3333 5.93064 16.736 5.33331 16 5.33331Z" fill="white"/>
</g>
<defs>
<clipPath id="clip0_7_65">
<rect width="32" height="32" fill="white"/>
</clipPath>
</defs>
</svg>
