<svg width="38" height="38" viewBox="0 0 38 38" fill="none" xmlns="http://www.w3.org/2000/svg">
<path d="M37.9924 20.4499C37.947 19.3975 36.9173 18.5571 34.9261 17.9514C33.3815 17.4895 31.4206 17.2094 29.3007 17.164V9.08545C29.2931 8.94917 29.2552 8.82045 29.1871 8.70689C28.9751 7.79077 27.953 7.04879 26.1435 6.50366C24.4399 5.98881 22.214 5.70868 19.8745 5.70868C17.5425 5.70868 15.3393 5.98881 13.6661 6.50366C12.2957 6.92765 10.6527 7.71506 10.6527 9.07031C10.6527 9.15359 10.6603 9.23687 10.6754 9.32016L10.7587 12.7726C5.83742 11.8338 1.09026 15.0667 0.158996 19.9804C0.0529986 20.5407 0 21.101 0 21.6688C0 26.6658 4.06575 30.7316 9.06276 30.7316C11.1448 30.7316 13.1588 30.0199 14.7715 28.7025C16.1873 29.0356 17.853 29.2174 19.6171 29.2325C20.0032 31.3297 24.5459 32.2913 28.7782 32.2913C31.1102 32.2913 33.3134 32.0036 34.9867 31.4811C36.357 31.0572 38 30.2622 38 28.9069V20.5937C38 20.5483 38 20.4953 37.9924 20.4499ZM27.7183 13.2723C27.7183 13.3708 27.3549 13.8932 25.7119 14.3929C24.1749 14.8547 22.0474 15.1273 19.882 15.1273C18.012 15.1273 16.1797 14.9304 14.726 14.5594C14.7033 14.5519 14.6882 14.5519 14.6655 14.5443C13.9462 13.9765 13.1512 13.5222 12.2957 13.2042L12.2427 11.0691C12.7651 11.3341 13.3102 11.5461 13.8781 11.6975C15.521 12.1745 17.6485 12.4319 19.882 12.4319C22.214 12.4319 24.4475 12.1518 26.151 11.637C26.7189 11.4704 27.2716 11.2508 27.794 10.9783V12.9619C27.7107 13.0679 27.7183 13.1663 27.7183 13.2723ZM14.1203 7.96491C15.6497 7.49549 17.694 7.2305 19.8745 7.2305C22.0398 7.2305 24.1674 7.49549 25.7043 7.96491C27.3473 8.46461 27.7107 8.97945 27.7107 9.07788C27.7107 9.18387 27.3397 9.70629 25.6968 10.1984C24.1598 10.6603 22.0398 10.9253 19.8745 10.9253C17.7848 10.9253 15.8012 10.683 14.2945 10.2438C12.6667 9.77443 12.2124 9.25959 12.1745 9.09302C12.1745 9.07788 12.167 9.07788 12.167 9.07788C12.1745 8.93402 12.5228 8.44946 14.1203 7.96491ZM14.1431 27.2564C11.0616 30.0578 6.28412 29.8382 3.48277 26.7567C0.681411 23.6752 0.900976 18.8978 3.98247 16.0964C5.368 14.832 7.1851 14.1355 9.06276 14.1355C9.81988 14.1355 10.5694 14.249 11.2963 14.4686C13.9235 15.2863 15.8996 17.4668 16.4599 20.1546C16.5583 20.6543 16.6113 21.1691 16.6113 21.6764C16.6188 23.8039 15.7179 25.8254 14.1431 27.2564ZM16.0661 27.423C16.6794 26.6734 17.1715 25.833 17.5198 24.932C18.1634 24.985 18.8296 25.0229 19.5262 25.0305V25.1667L19.5716 27.7334C18.3981 27.7182 17.2245 27.6123 16.0661 27.423ZM18.0877 20.7754C18.5268 20.8057 18.9886 20.8209 19.4581 20.8284L19.5035 23.5086C18.9735 23.5011 18.4511 23.4784 17.9514 23.4405C18.065 22.8575 18.1255 22.2594 18.1255 21.6688C18.1255 21.3736 18.1104 21.0783 18.0877 20.7754ZM19.9502 19.3218C19.9275 19.3218 19.8972 19.3218 19.8745 19.3218C19.1476 19.3218 18.4435 19.2915 17.7924 19.246C17.5047 18.2315 17.0504 17.2775 16.4371 16.4295C17.5728 16.5734 18.7161 16.6491 19.8669 16.6491C22.2064 16.6491 24.4399 16.369 26.1435 15.8541C26.7113 15.6876 27.2564 15.468 27.7788 15.203V17.1867C24.5308 17.2775 21.1919 17.9589 19.9502 19.3218ZM20.9496 20.5256C20.9496 20.518 20.9496 20.5104 20.9572 20.4953C21.0253 20.2909 21.5629 19.7912 23.1301 19.352C24.5989 18.9356 26.5144 18.7085 28.5284 18.7085H28.6571C30.8225 18.7085 32.9424 18.9583 34.4869 19.4278C36.0996 19.9123 36.4782 20.412 36.4858 20.5256V20.5332C36.4782 20.6467 36.0996 21.1691 34.4188 21.6688C32.8667 22.1307 30.8225 22.3805 28.6647 22.3805C26.575 22.3805 24.5914 22.1383 23.0847 21.7067C21.4569 21.2373 21.0102 20.7149 20.9647 20.5559C20.9496 20.5256 20.9496 20.5256 20.9496 20.5256ZM34.5475 30.0426C33.0181 30.5196 30.9663 30.7846 28.7858 30.7846C26.5977 30.7846 24.5535 30.5272 23.0392 30.0653C21.4417 29.5732 21.1086 29.0659 21.1086 28.9524C21.1086 28.9448 21.1086 28.9448 21.1086 28.9372L21.0707 26.7416C21.6764 27.0368 22.3048 27.264 22.956 27.4305C24.5459 27.847 26.5674 28.0817 28.642 28.0817C30.9815 28.0817 33.1998 27.8015 34.8958 27.2867C35.4485 27.1201 35.9785 26.9006 36.4858 26.6431V28.9145H36.4933C36.4933 29.0205 36.145 29.5429 34.5475 30.0426ZM36.5009 24.4702H36.4933C36.4933 24.5459 36.4479 24.6368 36.4479 24.72C36.4479 24.826 36.0921 25.3409 34.4567 25.8406C32.9046 26.31 30.8376 26.5674 28.6495 26.5674C24.4551 26.5674 21.631 25.621 21.0404 24.8866L21.0329 24.2506L21.0026 22.5092C21.5326 22.7742 22.0853 22.9862 22.6531 23.1452C24.2961 23.6222 26.4236 23.8796 28.6571 23.8796C30.9588 23.8796 33.1544 23.6071 34.8428 23.1074C35.4182 22.9484 35.9709 22.7288 36.5009 22.4562V24.4702Z" fill="#FEFEFE"/>
<path d="M11.8187 22.744C11.4704 21.5099 10.3423 20.6619 9.06276 20.6619C8.32078 20.6619 7.71508 20.0638 7.71508 19.3218C7.72265 18.5722 8.32078 17.9741 9.06276 17.9741C9.80475 17.9741 10.4104 18.5798 10.4104 19.3218C10.4104 19.7382 10.7512 20.0789 11.1676 20.0789C11.584 20.0789 11.9247 19.7382 11.9247 19.3218C11.9247 18.0422 11.0767 16.9141 9.8426 16.5658V16.2251C9.8426 15.8087 9.5019 15.468 9.08548 15.468C8.66906 15.468 8.32835 15.8087 8.32835 16.2251V16.5507C6.80653 16.9596 5.89798 18.5268 6.30683 20.0486C6.63997 21.2979 7.76808 22.1686 9.06276 22.1686C9.80475 22.1686 10.4104 22.7667 10.4104 23.5087C10.4104 24.2507 9.81232 24.8564 9.07034 24.8564C8.32835 24.8564 7.72265 24.2582 7.72265 23.5163C7.72265 23.0998 7.38195 22.7591 6.96553 22.7591C6.54911 22.7591 6.2084 23.0998 6.2084 23.5163C6.21598 24.8109 7.0791 25.9391 8.32835 26.2798V26.9385C8.32835 27.3549 8.66906 27.6956 9.08548 27.6956C9.5019 27.6956 9.8426 27.3549 9.8426 26.9385V26.2722C11.3644 25.8406 12.2503 24.2658 11.8187 22.744Z" fill="#F3EFFF"/>
</svg>
