<svg width="32" height="32" viewBox="0 0 32 32" fill="none" xmlns="http://www.w3.org/2000/svg">
<g clip-path="url(#clip0_7_53)">
<path d="M30.1013 19.8618C28.24 18.0005 25.4951 17.5487 23.2043 18.5057V7.46962C23.2043 7.01298 23.0265 6.58368 22.7037 6.26083L16.9441 0.500597C16.8093 0.365864 16.6524 0.255793 16.4822 0.173255C16.4819 0.173067 16.4815 0.17288 16.4811 0.172693C16.4733 0.168884 16.4655 0.165013 16.4576 0.161392C16.4427 0.154087 16.4276 0.147282 16.412 0.141226C16.1993 0.0495103 15.9684 0 15.7347 0H1.85873C0.862463 0 0.0518799 0.81052 0.0518799 1.80684V30.1932C0.0518799 31.1895 0.8624 32 1.85866 32H21.3974C22.3514 32 23.1438 31.2542 23.2013 30.302C23.2021 30.2894 23.2025 30.2769 23.2025 30.2643V30.1349C23.9808 30.4604 24.8115 30.6235 25.6424 30.6235C27.2572 30.6235 28.872 30.0089 30.1013 28.7796C31.2923 27.5885 31.9483 26.005 31.9483 24.3207C31.9483 22.6363 31.2923 21.0528 30.1013 19.8618ZM21.0727 6.39569H16.9469C16.8708 6.39569 16.8088 6.33369 16.8088 6.25752V2.13131L21.0727 6.39569ZM21.9538 30.242C21.9286 30.5289 21.6871 30.7513 21.3975 30.7513H1.85873C1.55092 30.7513 1.30063 30.501 1.30063 30.1932V1.80684C1.30063 1.49904 1.55099 1.24868 1.85873 1.24868H15.5602V6.25752C15.5602 7.02222 16.1823 7.64437 16.947 7.64437H21.9557V19.2047C21.6853 19.3998 21.4268 19.6186 21.1835 19.8618C19.9925 21.0529 19.3366 22.6364 19.3366 24.3207C19.3366 26.0051 19.9925 27.5886 21.1835 28.7796C21.4262 29.0223 21.6841 29.2407 21.9539 29.4354V30.242H21.9538ZM29.2183 27.8966C27.2465 29.8684 24.0382 29.8684 22.0664 27.8966C21.1112 26.9415 20.5852 25.6715 20.5852 24.3207C20.5852 22.97 21.1112 21.6999 22.0664 20.7448C23.0523 19.7589 24.3473 19.2659 25.6423 19.2659C26.9374 19.2659 28.2324 19.7589 29.2183 20.7448C30.1734 21.7 30.6995 22.97 30.6995 24.3207C30.6995 25.6715 30.1735 26.9415 29.2183 27.8966Z" fill="white"/>
<path d="M4.45137 9.95077H13.1555C13.5003 9.95077 13.7798 9.67125 13.7798 9.32643C13.7798 8.98161 13.5003 8.70209 13.1555 8.70209H4.45137C4.10661 8.70209 3.82703 8.98161 3.82703 9.32643C3.82703 9.67125 4.10654 9.95077 4.45137 9.95077Z" fill="white"/>
<path d="M15.3264 19.9351H4.45137C4.10661 19.9351 3.82703 20.2146 3.82703 20.5595C3.82703 20.9043 4.10661 21.1838 4.45137 21.1838H15.3265C15.6712 21.1838 15.9508 20.9043 15.9508 20.5595C15.9508 20.2146 15.6712 19.9351 15.3264 19.9351Z" fill="white"/>
<path d="M15.3264 23.6794H4.45137C4.10661 23.6794 3.82703 23.959 3.82703 24.3038C3.82703 24.6486 4.10661 24.9281 4.45137 24.9281H15.3265C15.6712 24.9281 15.9508 24.6486 15.9508 24.3038C15.9508 23.959 15.6712 23.6794 15.3264 23.6794Z" fill="white"/>
<path d="M18.837 16.1908H4.45137C4.10661 16.1908 3.82703 16.4703 3.82703 16.8151C3.82703 17.16 4.10661 17.4395 4.45137 17.4395H18.837C19.1818 17.4395 19.4613 17.16 19.4613 16.8151C19.4613 16.4703 19.1818 16.1908 18.837 16.1908Z" fill="white"/>
<path d="M4.38893 13.7355H15.6529C15.9976 13.7355 16.2772 13.456 16.2772 13.1112C16.2772 12.7663 15.9976 12.4868 15.6529 12.4868H4.38893C4.04417 12.4868 3.76459 12.7663 3.76459 13.1112C3.76459 13.456 4.04411 13.7355 4.38893 13.7355Z" fill="white"/>
<path d="M18.76 13.7358C19.105 13.7358 19.3847 13.4562 19.3847 13.1112C19.3847 12.7662 19.105 12.4865 18.76 12.4865C18.415 12.4865 18.1354 12.7662 18.1354 13.1112C18.1354 13.4562 18.415 13.7358 18.76 13.7358Z" fill="white"/>
<path d="M27.8501 22.1129C27.6063 21.8691 27.2111 21.8691 26.9671 22.1129L25.6423 23.4377L24.3383 22.1338C24.0945 21.89 23.6992 21.89 23.4553 22.1338C23.2115 22.3776 23.2115 22.7729 23.4553 23.0167L24.7593 24.3206L23.4344 25.6455C23.1906 25.8893 23.1906 26.2846 23.4344 26.5284C23.5563 26.6504 23.7161 26.7113 23.8759 26.7113C24.0357 26.7113 24.1954 26.6503 24.3174 26.5284L25.6422 25.2036L26.9461 26.5076C27.0681 26.6295 27.2279 26.6905 27.3876 26.6905C27.5474 26.6905 27.7072 26.6295 27.8291 26.5076C28.0729 26.2638 28.0729 25.8684 27.8291 25.6246L26.5252 24.3207L27.85 22.9959C28.094 22.752 28.094 22.3567 27.8501 22.1129Z" fill="white"/>
</g>
<defs>
<clipPath id="clip0_7_53">
<rect width="32" height="32" fill="white"/>
</clipPath>
</defs>
</svg>
