<svg width="20" height="20" viewBox="0 0 20 20" fill="none" xmlns="http://www.w3.org/2000/svg">
<path d="M14.2074 0H5.79258C4.98724 0 4.33714 0.653014 4.33714 1.45689V18.5446C4.33714 19.3477 4.98724 20 5.79258 20H14.2074C15.0113 20 15.6628 19.3477 15.6628 18.5446V1.45689C15.6628 0.653014 15.0113 0 14.2074 0ZM7.92362 0.884775H12.0778C12.1828 0.884775 12.2681 1.04147 12.2681 1.23533C12.2681 1.4292 12.1828 1.58662 12.0778 1.58662H7.92362C7.81794 1.58662 7.73413 1.4292 7.73413 1.23533C7.73413 1.04147 7.81794 0.884775 7.92362 0.884775ZM10.0007 18.5621C9.48837 18.5621 9.07149 18.1452 9.07149 17.6321C9.07149 17.119 9.48837 16.7036 10.0007 16.7036C10.5116 16.7036 10.9285 17.119 10.9285 17.6321C10.9285 18.1452 10.5116 18.5621 10.0007 18.5621ZM14.5725 15.3779H5.42817V2.45828H14.5725V15.3779Z" fill="#FBBA42"/>
</svg>
