<svg width="30" height="30" viewBox="0 0 30 30" fill="none" xmlns="http://www.w3.org/2000/svg">
<g clip-path="url(#clip0_1_1122)">
<path d="M27.3895 9.62378H24.6819V29.978H27.3895V9.62378Z" fill="#FBBA42"/>
<path d="M21.9013 13.2826H19.1937V29.9779H21.9013V13.2826Z" fill="#FBBA42"/>
<path d="M16.4129 17.3074H13.7054V29.978H16.4129V17.3074Z" fill="#FBBA42"/>
<path d="M10.8881 18.954H8.18054V29.9964H10.8881V18.954Z" fill="#FBBA42"/>
<path d="M5.36318 24.9911H2.65564V30.0001H5.36318V24.9911Z" fill="#FBBA42"/>
<path d="M28.5238 0.220537C28.3702 0.088665 28.1771 0.0114187 27.9749 0.000983813H23.1818C22.7984 -0.0192557 22.4712 0.275233 22.451 0.658593C22.4504 0.671129 22.45 0.683595 22.45 0.696131C22.45 1.10029 22.7776 1.4279 23.1818 1.4279H26.2186L18.6815 9.00175L15.9739 6.3674C15.815 6.22362 15.601 6.15674 15.3885 6.18447C15.2278 6.22474 15.078 6.29967 14.9494 6.40402L1.48477 19.8686C1.21577 20.163 1.23202 20.6186 1.52132 20.8931C1.65642 21.031 1.84053 21.1099 2.03354 21.1127C2.23769 21.1118 2.43392 21.0333 2.58239 20.8931L15.5348 7.94076L18.1691 10.5019C18.3229 10.5946 18.5032 10.6332 18.6813 10.6117C18.9009 10.6117 19.0838 10.6117 19.1936 10.5019L27.2432 2.48904V5.48932C27.2432 5.89348 27.5708 6.2211 27.975 6.2211C28.3584 6.24134 28.6856 5.94685 28.7058 5.56349C28.7064 5.55095 28.7068 5.53849 28.7068 5.52595V0.732758C28.7015 0.54696 28.6374 0.367606 28.5238 0.220537Z" fill="white"/>
</g>
<defs>
<clipPath id="clip0_1_1122">
<rect width="30" height="30" fill="white"/>
</clipPath>
</defs>
</svg>
